<svg width="20" height="20" viewBox="0 0 20 20" fill="none" xmlns="http://www.w3.org/2000/svg">
<path d="M10 20C15.5228 20 20 15.5228 20 10C20 4.47715 15.5228 0 10 0C4.47715 0 0 4.47715 0 10C0 15.5228 4.47715 20 10 20Z" fill="#174254"/>
<path d="M13.994 7.633C12.7595 8.86749 11.5249 10.1021 10.2904 11.3368C9.05288 10.0993 7.81523 8.86162 6.57774 7.62396C5.49847 6.54453 3.82974 8.22605 4.91172 9.30802C6.42696 10.8233 7.94203 12.3385 9.45727 13.8537C9.91503 14.3117 10.6779 14.2992 11.1322 13.8447C12.6474 12.3295 14.1625 10.8143 15.6777 9.29902C16.7573 8.21963 15.0758 6.5509 13.994 7.633Z" fill="white"/>
</svg>
