<svg width="16" height="16" viewBox="0 0 16 16" fill="none" xmlns="http://www.w3.org/2000/svg">
<path d="M8 16C12.4183 16 16 12.4183 16 8C16 3.58172 12.4183 0 8 0C3.58172 0 0 3.58172 0 8C0 12.4183 3.58172 16 8 16Z" fill="#174254"/>
<path d="M11.1953 6.10611C10.2077 7.0937 9.21998 8.08142 8.23239 9.06911C7.2424 8.07912 6.25228 7.089 5.26229 6.09888C4.39888 5.23533 3.06389 6.58055 3.92947 7.44612C5.14166 8.65831 6.35372 9.8705 7.56591 11.0827C7.93212 11.449 8.54239 11.439 8.90583 11.0755C10.118 9.86331 11.3301 8.65112 12.5423 7.43893C13.406 6.57541 12.0607 5.24043 11.1953 6.10611Z" fill="white"/>
</svg>
