<svg width="28" height="28" viewBox="0 0 28 28" fill="none" xmlns="http://www.w3.org/2000/svg">
<path d="M17.7946 14.0062H15.5051C15.5051 17.664 15.5051 22.1663 15.5051 22.1663H12.1126C12.1126 22.1663 12.1126 17.7076 12.1126 14.0062H10.5V11.1221H12.1126V9.25669C12.1126 7.92066 12.7475 5.83301 15.5363 5.83301L18.0502 5.84264V8.64224C18.0502 8.64224 16.5226 8.64224 16.2256 8.64224C15.9286 8.64224 15.5063 8.79075 15.5063 9.42787V11.1227H18.091L17.7946 14.0062Z" fill="white"/>
<mask id="mask0" mask-type="alpha" maskUnits="userSpaceOnUse" x="10" y="5" width="9" height="18">
<path d="M17.7946 14.0062H15.5051C15.5051 17.664 15.5051 22.1663 15.5051 22.1663H12.1126C12.1126 22.1663 12.1126 17.7076 12.1126 14.0062H10.5V11.1221H12.1126V9.25669C12.1126 7.92066 12.7475 5.83301 15.5363 5.83301L18.0502 5.84264V8.64224C18.0502 8.64224 16.5226 8.64224 16.2256 8.64224C15.9286 8.64224 15.5063 8.79075 15.5063 9.42787V11.1227H18.091L17.7946 14.0062Z" fill="white"/>
</mask>
<g mask="url(#mask0)">
<rect width="28" height="28" fill="white"/>
</g>
</svg>
