<svg width="80" height="80" viewBox="0 0 80 80" fill="none" xmlns="http://www.w3.org/2000/svg">
<g clip-path="url(#clip0)">
<path d="M48.4959 2.35303H31.5041C27.0884 2.35303 23.4961 5.94537 23.4961 10.361V11.7866H28.1836V10.361C28.1836 8.53006 29.6731 7.04053 31.5041 7.04053H48.4959C50.3269 7.04053 51.8164 8.53006 51.8164 10.361V11.7866H56.5039V10.361C56.5039 5.94553 52.9116 2.35303 48.4959 2.35303Z" fill="url(#paint0_linear)"/>
<path d="M42.3633 42.353V35.2827H37.6367V42.353C37.6367 43.6474 36.5873 44.6968 35.293 44.6968H28.2227V49.4234H35.293C36.5873 49.4234 37.6367 50.4727 37.6367 51.7671V58.8374H42.3633V51.7671C42.3633 50.4727 43.4127 49.4234 44.707 49.4234H51.7773V44.6968H44.707C43.4127 44.6968 42.3633 43.6476 42.3633 42.353Z" fill="url(#paint1_linear)"/>
<path d="M0 28.388V65.7321C0 71.4993 4.11953 76.3213 9.57016 77.4132V16.7068C4.11953 17.7987 0 22.6207 0 28.388Z" fill="url(#paint2_linear)"/>
<path d="M70.4299 16.7068V77.4132C75.8806 76.3213 80.0001 71.4993 80.0001 65.7319V28.388C80.0001 22.6207 75.8806 17.7987 70.4299 16.7068Z" fill="url(#paint3_linear)"/>
<path d="M65.7423 16.4734H14.2576V77.6453H65.7423V16.4734ZM56.4648 51.7662C56.4648 53.0606 55.4154 54.1099 54.121 54.1099H47.0507V61.1803C47.0507 62.4746 46.0013 63.524 44.7069 63.524H35.2929C33.9985 63.524 32.9491 62.4746 32.9491 61.1803V54.1099H25.8788C24.5844 54.1099 23.5351 53.0606 23.5351 51.7662V42.3521C23.5351 41.0578 24.5844 40.0084 25.8788 40.0084H32.9491V32.9381C32.9491 31.6437 33.9985 30.5943 35.2929 30.5943H44.7069C46.0013 30.5943 47.0507 31.6437 47.0507 32.9381V40.0084H54.121C55.4154 40.0084 56.4648 41.0578 56.4648 42.3521V51.7662Z" fill="url(#paint4_linear)"/>
</g>
<defs>
<linearGradient id="paint0_linear" x1="40" y1="2.35303" x2="40" y2="11.7866" gradientUnits="userSpaceOnUse">
<stop stop-color="#742055"/>
<stop offset="1" stop-color="#601A46"/>
</linearGradient>
<linearGradient id="paint1_linear" x1="40" y1="35.2827" x2="40" y2="58.8374" gradientUnits="userSpaceOnUse">
<stop stop-color="#742055"/>
<stop offset="1" stop-color="#601A46"/>
</linearGradient>
<linearGradient id="paint2_linear" x1="4.78508" y1="16.7068" x2="4.78508" y2="77.4132" gradientUnits="userSpaceOnUse">
<stop stop-color="#742055"/>
<stop offset="1" stop-color="#601A46"/>
</linearGradient>
<linearGradient id="paint3_linear" x1="75.215" y1="16.7068" x2="75.215" y2="77.4132" gradientUnits="userSpaceOnUse">
<stop stop-color="#742055"/>
<stop offset="1" stop-color="#601A46"/>
</linearGradient>
<linearGradient id="paint4_linear" x1="39.9999" y1="16.4734" x2="39.9999" y2="77.6453" gradientUnits="userSpaceOnUse">
<stop stop-color="#742055"/>
<stop offset="1" stop-color="#601A46"/>
</linearGradient>
<clipPath id="clip0">
<rect width="80" height="80" fill="white"/>
</clipPath>
</defs>
</svg>
