<svg width="80" height="80" viewBox="0 0 80 80" fill="none" xmlns="http://www.w3.org/2000/svg">
<g clip-path="url(#clip0)">
<path d="M48.4959 2.35254H31.5041C27.0884 2.35254 23.4961 5.94488 23.4961 10.3605V11.7861H28.1836V10.3605C28.1836 8.52957 29.6731 7.04004 31.5041 7.04004H48.4959C50.3269 7.04004 51.8164 8.52957 51.8164 10.3605V11.7861H56.5039V10.3605C56.5039 5.94504 52.9116 2.35254 48.4959 2.35254Z" fill="url(#paint0_linear)"/>
<path d="M42.3633 42.3525V35.2822H37.6367V42.3525C37.6367 43.6469 36.5873 44.6963 35.293 44.6963H28.2227V49.4229H35.293C36.5873 49.4229 37.6367 50.4722 37.6367 51.7666V58.8369H42.3633V51.7666C42.3633 50.4722 43.4127 49.4229 44.707 49.4229H51.7773V44.6963H44.707C43.4127 44.6963 42.3633 43.6471 42.3633 42.3525Z" fill="url(#paint1_linear)"/>
<path d="M0 28.3873V65.7314C0 71.4985 4.11953 76.3206 9.57016 77.4125V16.7061C4.11953 17.7979 0 22.62 0 28.3873Z" fill="url(#paint2_linear)"/>
<path d="M70.4299 16.7061V77.4125C75.8806 76.3206 80.0001 71.4985 80.0001 65.7312V28.3873C80.0001 22.62 75.8806 17.7979 70.4299 16.7061Z" fill="url(#paint3_linear)"/>
<path d="M65.7423 16.4727H14.2576V77.6445H65.7423V16.4727ZM56.4648 51.7655C56.4648 53.0598 55.4154 54.1092 54.121 54.1092H47.0507V61.1795C47.0507 62.4739 46.0013 63.5233 44.7069 63.5233H35.2929C33.9985 63.5233 32.9491 62.4739 32.9491 61.1795V54.1092H25.8788C24.5844 54.1092 23.5351 53.0598 23.5351 51.7655V42.3514C23.5351 41.057 24.5844 40.0077 25.8788 40.0077H32.9491V32.9373C32.9491 31.643 33.9985 30.5936 35.2929 30.5936H44.7069C46.0013 30.5936 47.0507 31.643 47.0507 32.9373V40.0077H54.121C55.4154 40.0077 56.4648 41.057 56.4648 42.3514V51.7655Z" fill="url(#paint4_linear)"/>
</g>
<defs>
<linearGradient id="paint0_linear" x1="40" y1="2.35254" x2="40" y2="11.7861" gradientUnits="userSpaceOnUse">
<stop stop-color="#874545"/>
<stop offset="1" stop-color="#8B5D5D"/>
</linearGradient>
<linearGradient id="paint1_linear" x1="40" y1="35.2822" x2="40" y2="58.8369" gradientUnits="userSpaceOnUse">
<stop stop-color="#874545"/>
<stop offset="1" stop-color="#8B5D5D"/>
</linearGradient>
<linearGradient id="paint2_linear" x1="4.78508" y1="16.7061" x2="4.78508" y2="77.4125" gradientUnits="userSpaceOnUse">
<stop stop-color="#874545"/>
<stop offset="1" stop-color="#8B5D5D"/>
</linearGradient>
<linearGradient id="paint3_linear" x1="75.215" y1="16.7061" x2="75.215" y2="77.4125" gradientUnits="userSpaceOnUse">
<stop stop-color="#874545"/>
<stop offset="1" stop-color="#8B5D5D"/>
</linearGradient>
<linearGradient id="paint4_linear" x1="39.9999" y1="16.4727" x2="39.9999" y2="77.6445" gradientUnits="userSpaceOnUse">
<stop stop-color="#874545"/>
<stop offset="1" stop-color="#8B5D5D"/>
</linearGradient>
<clipPath id="clip0">
<rect width="80" height="80" fill="white"/>
</clipPath>
</defs>
</svg>
