<svg width="28" height="28" viewBox="0 0 28 28" fill="none" xmlns="http://www.w3.org/2000/svg">
<path fill-rule="evenodd" clip-rule="evenodd" d="M22.1661 19.0095V12.3232V8.98932C22.1661 7.24834 20.7502 5.83301 19.0092 5.83301H8.98968C7.24871 5.83301 5.83337 7.24834 5.83337 8.98932V12.3232V19.0095C5.83337 20.751 7.24871 22.1663 8.98968 22.1663H19.0098C20.7502 22.1663 22.1661 20.751 22.1661 19.0095ZM16.875 13.9988C16.875 15.5842 15.5834 16.8734 13.9992 16.8734C12.4144 16.8734 11.124 15.5836 11.1257 13.9982C11.1263 13.3724 11.3293 12.7946 11.6694 12.3226C12.1928 11.5984 13.0413 11.1242 14.0009 11.1242C14.9599 11.1242 15.809 11.599 16.3313 12.3232C16.6702 12.7951 16.875 13.373 16.875 13.9988ZM20.2765 10.4822V8.07257V7.71396L19.9162 7.71512L17.5077 7.72264L17.517 10.4914L20.2765 10.4822ZM13.9998 18.4658C16.4631 18.4658 18.4667 16.4611 18.4667 13.9989C18.4667 13.4066 18.347 12.8404 18.1347 12.3233H20.5738V19.0095C20.5738 19.8737 19.8711 20.5735 19.0087 20.5735H8.98911C8.12557 20.5735 7.42397 19.8737 7.42397 19.0095V12.3233H9.86191C9.65138 12.8404 9.53338 13.4066 9.53338 13.9989C9.53338 16.4611 11.5364 18.4658 13.9998 18.4658Z" fill="white"/>
<mask id="mask0" mask-type="alpha" maskUnits="userSpaceOnUse" x="5" y="5" width="18" height="18">
<path fill-rule="evenodd" clip-rule="evenodd" d="M22.1661 19.0095V12.3232V8.98932C22.1661 7.24834 20.7502 5.83301 19.0092 5.83301H8.98968C7.24871 5.83301 5.83337 7.24834 5.83337 8.98932V12.3232V19.0095C5.83337 20.751 7.24871 22.1663 8.98968 22.1663H19.0098C20.7502 22.1663 22.1661 20.751 22.1661 19.0095ZM16.875 13.9988C16.875 15.5842 15.5834 16.8734 13.9992 16.8734C12.4144 16.8734 11.124 15.5836 11.1257 13.9982C11.1263 13.3724 11.3293 12.7946 11.6694 12.3226C12.1928 11.5984 13.0413 11.1242 14.0009 11.1242C14.9599 11.1242 15.809 11.599 16.3313 12.3232C16.6702 12.7951 16.875 13.373 16.875 13.9988ZM20.2765 10.4822V8.07257V7.71396L19.9162 7.71512L17.5077 7.72264L17.517 10.4914L20.2765 10.4822ZM13.9998 18.4658C16.4631 18.4658 18.4667 16.4611 18.4667 13.9989C18.4667 13.4066 18.347 12.8404 18.1347 12.3233H20.5738V19.0095C20.5738 19.8737 19.8711 20.5735 19.0087 20.5735H8.98911C8.12557 20.5735 7.42397 19.8737 7.42397 19.0095V12.3233H9.86191C9.65138 12.8404 9.53338 13.4066 9.53338 13.9989C9.53338 16.4611 11.5364 18.4658 13.9998 18.4658Z" fill="white"/>
</mask>
<g mask="url(#mask0)">
<rect width="28" height="28" fill="white"/>
</g>
</svg>
