<svg width="28" height="28" viewBox="0 0 28 28" fill="none" xmlns="http://www.w3.org/2000/svg">
<path fill-rule="evenodd" clip-rule="evenodd" d="M7.75883 7C6.59488 7 5.83337 7.76404 5.83337 8.76788C5.83337 9.7504 6.5728 10.5365 7.71417 10.5365H7.73625C8.92304 10.5365 9.66095 9.7504 9.66095 8.76788C9.63836 7.76404 8.92304 7 7.75883 7ZM21.7049 16.298V22.1667H18.3024V16.6913C18.3024 15.3165 17.8111 14.3776 16.5792 14.3776C15.639 14.3776 15.0805 15.0097 14.8339 15.6217C14.7443 15.8405 14.7212 16.1442 14.7212 16.451V22.1665H11.3184C11.3184 22.1665 11.3641 12.8929 11.3184 11.9329H14.7215V13.3831C14.7183 13.3885 14.7144 13.3938 14.7107 13.399C14.7064 13.405 14.7021 13.4108 14.6989 13.4166H14.7215V13.3831C15.1737 12.6873 15.9801 11.6926 17.7881 11.6926C20.0266 11.6926 21.7049 13.1553 21.7049 16.298ZM9.43714 22.1667H6.03561V11.933H9.43714V22.1667Z" fill="white"/>
<mask id="mask0" mask-type="alpha" maskUnits="userSpaceOnUse" x="5" y="7" width="17" height="16">
<path fill-rule="evenodd" clip-rule="evenodd" d="M7.75883 7C6.59488 7 5.83337 7.76404 5.83337 8.76788C5.83337 9.7504 6.5728 10.5365 7.71417 10.5365H7.73625C8.92304 10.5365 9.66095 9.7504 9.66095 8.76788C9.63836 7.76404 8.92304 7 7.75883 7ZM21.7049 16.298V22.1667H18.3024V16.6913C18.3024 15.3165 17.8111 14.3776 16.5792 14.3776C15.639 14.3776 15.0805 15.0097 14.8339 15.6217C14.7443 15.8405 14.7212 16.1442 14.7212 16.451V22.1665H11.3184C11.3184 22.1665 11.3641 12.8929 11.3184 11.9329H14.7215V13.3831C14.7183 13.3885 14.7144 13.3938 14.7107 13.399C14.7064 13.405 14.7021 13.4108 14.6989 13.4166H14.7215V13.3831C15.1737 12.6873 15.9801 11.6926 17.7881 11.6926C20.0266 11.6926 21.7049 13.1553 21.7049 16.298ZM9.43714 22.1667H6.03561V11.933H9.43714V22.1667Z" fill="white"/>
</mask>
<g mask="url(#mask0)">
<rect width="28" height="28" fill="white"/>
</g>
</svg>
