<svg width="28" height="28" viewBox="0 0 28 28" fill="none" xmlns="http://www.w3.org/2000/svg">
<path fill-rule="evenodd" clip-rule="evenodd" d="M21.5921 7.57536L21.5487 7.54642C20.6516 6.69272 19.5953 6.28757 18.3799 6.34545L18.3365 6.25863L18.3654 6.24416C19.4651 5.99818 20.1162 5.73773 20.3188 5.44834C20.3767 5.21683 20.3043 5.08661 20.0583 5.05767C19.5085 5.13002 18.9876 5.24577 18.5391 5.43387C19.1178 5.05767 19.3349 4.79722 19.2047 4.66699C18.6403 4.68146 18.0182 4.97085 17.3815 5.54963C17.613 5.14448 17.7143 4.91297 17.6564 4.88403C17.3381 5.08661 17.0776 5.31812 16.8461 5.5641C16.3542 6.11394 15.9635 6.62037 15.6596 7.08339L15.6452 7.11233C14.8783 8.37118 14.3284 9.63002 14.0101 10.9178L13.8944 11.0191L13.8654 11.0336C13.4024 10.4548 12.8381 9.96282 12.1725 9.57214C11.3911 9.05124 10.4651 8.57375 9.39435 8.09626C8.23679 7.48854 7.0503 6.99658 5.8638 6.6059C5.84933 7.95156 6.51493 9.00783 7.80271 9.78918V9.80365C7.35416 9.80365 6.9056 9.876 6.47152 10.0062C6.55834 11.2506 7.44097 12.1043 9.10496 12.5673L9.09049 12.5963C8.43937 12.5529 7.904 12.7844 7.48438 13.2619C8.03422 14.3326 9.00368 14.839 10.4072 14.8101C10.1323 14.9548 9.91525 15.0995 9.77056 15.2731C9.51011 15.548 9.42329 15.8664 9.51011 16.2281C9.81397 16.7779 10.3493 17.0239 11.1452 16.9805L11.1886 17.0384L11.1741 17.0673C9.7995 18.4853 8.13551 19.122 6.1966 18.9918L6.16766 19.0062C4.98116 18.9918 3.70785 18.4275 2.33325 17.2988C3.70785 19.2812 5.54547 20.7136 7.81718 21.6252C10.4072 22.4789 13.0117 22.5513 15.6018 21.8133H15.6452C18.1629 21.0898 20.2899 19.585 22.0551 17.3278C22.8654 16.1558 23.3719 15.0271 23.5744 13.9419C24.8912 13.9853 25.8317 13.6091 26.4249 12.7988L26.4104 12.7699C25.9619 12.9291 25.1082 12.8857 23.8494 12.6252V12.4805C25.2384 12.3213 26.0632 11.8728 26.3236 11.1348C25.3542 11.5111 24.3992 11.5255 23.4587 11.1638C23.285 9.86153 22.6629 8.66057 21.5921 7.57536Z" fill="white"/>
<mask id="mask0" mask-type="alpha" maskUnits="userSpaceOnUse" x="2" y="4" width="25" height="19">
<path fill-rule="evenodd" clip-rule="evenodd" d="M21.5921 7.57536L21.5487 7.54642C20.6516 6.69272 19.5953 6.28757 18.3799 6.34545L18.3365 6.25863L18.3654 6.24416C19.4651 5.99818 20.1162 5.73773 20.3188 5.44834C20.3767 5.21683 20.3043 5.08661 20.0583 5.05767C19.5085 5.13002 18.9876 5.24577 18.5391 5.43387C19.1178 5.05767 19.3349 4.79722 19.2047 4.66699C18.6403 4.68146 18.0182 4.97085 17.3815 5.54963C17.613 5.14448 17.7143 4.91297 17.6564 4.88403C17.3381 5.08661 17.0776 5.31812 16.8461 5.5641C16.3542 6.11394 15.9635 6.62037 15.6596 7.08339L15.6452 7.11233C14.8783 8.37118 14.3284 9.63002 14.0101 10.9178L13.8944 11.0191L13.8654 11.0336C13.4024 10.4548 12.8381 9.96282 12.1725 9.57214C11.3911 9.05124 10.4651 8.57375 9.39435 8.09626C8.23679 7.48854 7.0503 6.99658 5.8638 6.6059C5.84933 7.95156 6.51493 9.00783 7.80271 9.78918V9.80365C7.35416 9.80365 6.9056 9.876 6.47152 10.0062C6.55834 11.2506 7.44097 12.1043 9.10496 12.5673L9.09049 12.5963C8.43937 12.5529 7.904 12.7844 7.48438 13.2619C8.03422 14.3326 9.00368 14.839 10.4072 14.8101C10.1323 14.9548 9.91525 15.0995 9.77056 15.2731C9.51011 15.548 9.42329 15.8664 9.51011 16.2281C9.81397 16.7779 10.3493 17.0239 11.1452 16.9805L11.1886 17.0384L11.1741 17.0673C9.7995 18.4853 8.13551 19.122 6.1966 18.9918L6.16766 19.0062C4.98116 18.9918 3.70785 18.4275 2.33325 17.2988C3.70785 19.2812 5.54547 20.7136 7.81718 21.6252C10.4072 22.4789 13.0117 22.5513 15.6018 21.8133H15.6452C18.1629 21.0898 20.2899 19.585 22.0551 17.3278C22.8654 16.1558 23.3719 15.0271 23.5744 13.9419C24.8912 13.9853 25.8317 13.6091 26.4249 12.7988L26.4104 12.7699C25.9619 12.9291 25.1082 12.8857 23.8494 12.6252V12.4805C25.2384 12.3213 26.0632 11.8728 26.3236 11.1348C25.3542 11.5111 24.3992 11.5255 23.4587 11.1638C23.285 9.86153 22.6629 8.66057 21.5921 7.57536Z" fill="white"/>
</mask>
<g mask="url(#mask0)">
<rect width="28" height="28" fill="white"/>
</g>
</svg>
